<svg width="109" height="57" viewBox="0 0 100 17" fill="none" xmlns="http://www.w3.org/2000/svg">
<path d="M63.2455 10.3477C63.3895 9.43836 64.2907 8.85501 65.1794 9.09594L92.7975 16.5841C96.2029 17.5075 99.5875 15.0394 99.7493 11.5147C99.9158 7.88509 96.588 5.08919 93.0416 5.87917L65.1108 12.1007C64.0447 12.3381 63.0746 11.4266 63.2455 10.3477Z" fill="url(#paint0_linear_0_1)"/>
<path d="M0.505682 0.363636H3.64773L5.29545 5.23295H5.41477L8.67045 0.363636H11.8125L6.27273 8.11364L5.625 12H2.82955L3.48295 8.11364L0.505682 0.363636ZM12.3892 12H9.36648L15.2244 0.363636H18.9688L20.9631 12H17.9403L16.6619 3.29545H16.571L12.3892 12ZM12.7528 7.42045H19.071L18.7074 9.55682H12.3892L12.7528 7.42045ZM29.4872 3.875C29.5175 3.44697 29.4039 3.11553 29.1463 2.88068C28.8925 2.64583 28.491 2.52841 27.9418 2.52841C27.5781 2.52841 27.2675 2.57576 27.0099 2.67045C26.7524 2.76136 26.5497 2.89015 26.402 3.05682C26.2543 3.2197 26.1615 3.40909 26.1236 3.625C26.0895 3.79545 26.099 3.94697 26.152 4.07955C26.205 4.21212 26.2978 4.32955 26.4304 4.43182C26.5668 4.53409 26.7353 4.62311 26.9361 4.69886C27.1406 4.77462 27.3698 4.84091 27.6236 4.89773L28.5781 5.125C29.1312 5.25 29.6103 5.41667 30.0156 5.625C30.4247 5.82955 30.7562 6.07765 31.0099 6.36932C31.2637 6.6572 31.438 6.98864 31.5327 7.36364C31.6274 7.73864 31.6349 8.15909 31.5554 8.625C31.4342 9.35985 31.1444 9.99053 30.6861 10.517C30.2315 11.0436 29.6368 11.447 28.902 11.7273C28.1709 12.0076 27.3205 12.1477 26.3509 12.1477C25.3812 12.1477 24.5573 12.0019 23.8793 11.7102C23.205 11.4148 22.7164 10.9697 22.4134 10.375C22.1103 9.7803 22.0289 9.0303 22.169 8.125H24.8565C24.8149 8.5 24.8622 8.8125 24.9986 9.0625C25.1387 9.3125 25.3546 9.50189 25.6463 9.63068C25.938 9.75947 26.2902 9.82386 26.7031 9.82386C27.0819 9.82386 27.4134 9.77273 27.6974 9.67045C27.9853 9.56818 28.2145 9.42614 28.3849 9.24432C28.5592 9.0625 28.6652 8.85417 28.7031 8.61932C28.741 8.40341 28.705 8.21591 28.5952 8.05682C28.4891 7.89773 28.3073 7.75947 28.0497 7.64205C27.7959 7.52462 27.4626 7.41856 27.0497 7.32386L25.8849 7.03977C24.9228 6.80492 24.1937 6.42992 23.6974 5.91477C23.205 5.39962 23.0308 4.70076 23.1747 3.81818C23.2959 3.0947 23.5952 2.46212 24.0724 1.92045C24.5535 1.37879 25.1615 0.958333 25.8963 0.659091C26.6349 0.35606 27.4474 0.204545 28.3338 0.204545C29.2353 0.204545 29.9929 0.357954 30.6065 0.664772C31.224 0.967803 31.669 1.39583 31.9418 1.94886C32.2183 2.49811 32.2978 3.14015 32.1804 3.875H29.4872ZM32.419 12L34.3509 0.363636H37.1634L36.3906 5.03409H40.9759L41.7486 0.363636H44.5554L42.6236 12H39.8168L40.5895 7.32386H36.0043L35.2315 12H32.419ZM47.1776 12L45.723 0.363636H48.831L49.331 7.98864H49.4276L52.6889 0.363636H55.223L55.973 8.00568H56.0639L59.0866 0.363636H62.1889L56.8764 12H54.1662L53.2514 4.94318H53.1605L49.8821 12H47.1776ZM62.6705 12H59.6477L65.5057 0.363636H69.25L71.2443 12H68.2216L66.9432 3.29545H66.8523L62.6705 12ZM63.0341 7.42045H69.3523L68.9886 9.55682H62.6705L63.0341 7.42045ZM84.3324 0.363636L82.4006 12H80.0142L76.5085 5.28409H76.429L75.3097 12H72.4972L74.429 0.363636H76.8494L80.3267 7.06818H80.4233L81.5256 0.363636H84.3324ZM85.3338 2.64773L85.7202 0.363636H95.5554L95.169 2.64773H91.6406L90.0952 12H87.3224L88.8679 2.64773H85.3338Z" fill="white"/>
<defs>
<linearGradient id="paint0_linear_0_1" x1="198.253" y1="29.604" x2="177.274" y2="72.0777" gradientUnits="userSpaceOnUse">
<stop stop-color="#DF8908"/>
<stop offset="1" stop-color="#B415FF"/>
</linearGradient>
</defs>
</svg>
